<svg id="Ebene_1" data-name="Ebene 1" xmlns="http://www.w3.org/2000/svg" viewBox="0 0 283.465 233.158"><defs><style>.cls-1{fill:#ff9400;}</style></defs><title>IXTENSA Logo 2018 orange</title><path class="cls-1" d="M141.367,0a25.684,25.684,0,1,1-25.726,25.66A25.747,25.747,0,0,1,141.367,0Z"/><polygon class="cls-1" points="79.187 230.461 79.175 230.461 77.027 233.158 35.729 233.158 37.888 230.461 37.836 230.461 107.637 143.307 128.382 168.68 79.187 230.461"/><polygon class="cls-1" points="206.472 233.157 204.062 230.1 203.952 230.1 155.286 168.381 176.141 143.098 186.145 155.677 186.156 155.664 247.784 233.157 206.472 233.157"/><path class="cls-1" d="M247.484,68.61,207.742,83.7c-8.388,3.416-16.456,8.985-21.695,15.015l-44.4,53.823-44.3-54.179A58.861,58.861,0,0,0,76,83.748L36.007,68.556,0,23.307,77.387,52.669c23.874,9.046,45.47,24.478,59.347,42.456l5.212,6.4,4.9-6.315c13.956-18.03,35.66-33.561,60.415-42.927l76.2-28.908Z"/></svg>